#N canvas 86 23 1341 851 10;
#X obj 180 202 bng 15 250 50 0 empty empty empty 17 7 0 10 -262144
-1 -1;
#X obj 219 654 dac~;
#X obj 219 509 *~ 1;
#X obj 277 200 bng 15 250 50 0 empty empty empty 17 7 0 10 -262144
-1 -1;
#X obj 329 144 r down;
#X obj 139 144 r up;
#X obj 80 265 noise~;
#X obj 151 400 *~;
#X obj 182 243 t b b b;
#X obj 288 238 t b b b;
#X obj 180 310 0 1;
#X obj 166 374 line~;
#X msg 216 310 1;
#X msg 325 302 3;
#X obj 165 433 sig~ 1000;
#X msg 246 309 2;
#X obj 701 207 r type;
#X obj 698 254 + 1;
#X msg 360 304 10;
#X obj 148 456 vcf~ 40;
#X obj 756 331 + 40;
#X obj 758 297 * 10;
#X obj 219 616 clip~ -1 1;
#X obj 421 197 bng 15 250 50 0 empty empty empty 17 7 0 10 -262144
-1 -1;
#X obj 421 241 t b b b;
#X obj 462 147 r upbeat;
#X msg 458 305 2;
#X msg 496 303 6;
#X obj 219 589 lop~ 24000;
#X obj 310 503 samplerate~;
#X obj 310 481 loadbang;
#X obj 310 532 / 2;
#X obj 217 553 *~ 2;
#X obj 699 298 * 800;
#X msg 289 303 0 1;
#X msg 422 306 0 1;
#X connect 0 0 8 0;
#X connect 2 0 32 0;
#X connect 3 0 9 0;
#X connect 4 0 9 0;
#X connect 5 0 8 0;
#X connect 6 0 7 0;
#X connect 7 0 19 0;
#X connect 8 0 10 0;
#X connect 8 1 12 0;
#X connect 8 2 15 0;
#X connect 9 0 34 0;
#X connect 9 1 13 0;
#X connect 9 2 18 0;
#X connect 10 0 11 0;
#X connect 11 0 7 1;
#X connect 12 0 11 0;
#X connect 13 0 11 0;
#X connect 14 0 19 1;
#X connect 15 0 2 1;
#X connect 16 0 17 0;
#X connect 17 0 21 0;
#X connect 17 0 33 0;
#X connect 18 0 2 1;
#X connect 19 0 2 0;
#X connect 20 0 19 2;
#X connect 21 0 20 0;
#X connect 22 0 1 0;
#X connect 22 0 1 1;
#X connect 23 0 24 0;
#X connect 24 0 35 0;
#X connect 24 1 26 0;
#X connect 24 2 27 0;
#X connect 25 0 24 0;
#X connect 26 0 11 0;
#X connect 27 0 2 1;
#X connect 28 0 22 0;
#X connect 29 0 31 0;
#X connect 30 0 29 0;
#X connect 31 0 28 1;
#X connect 32 0 28 0;
#X connect 33 0 14 0;
#X connect 34 0 11 0;
#X connect 35 0 11 0;
