#N canvas 86 23 1341 851 10;
#N canvas 0 22 934 537 click 0;
#X obj 326 380 line~;
#X msg 447 258 stop;
#X obj 279 74 inlet;
#X obj 313 492 outlet~;
#X obj 254 380 noise~;
#X obj 311 430 *~;
#X obj 284 140 t b b b b;
#X msg 386 290 0;
#X obj 256 256 delay 2;
#X msg 326 337 2 2;
#X msg 260 314 0 2;
#X connect 0 0 5 1;
#X connect 1 0 0 0;
#X connect 2 0 6 0;
#X connect 4 0 5 0;
#X connect 5 0 3 0;
#X connect 6 0 8 0;
#X connect 6 1 9 0;
#X connect 6 2 7 0;
#X connect 6 3 1 0;
#X connect 7 0 0 0;
#X connect 8 0 10 0;
#X connect 9 0 0 0;
#X connect 10 0 0 0;
#X restore 214 312 pd click;
#X obj 212 202 bng 15 250 50 0 empty empty empty 17 7 0 10 -262144
-1 -1;
#X obj 217 587 dac~;
#X obj 214 426 vcf~;
#X obj 316 376 sig~;
#X floatatom 311 308 5 0 0 0 - - -;
#X floatatom 383 377 5 0 0 0 - - -;
#X obj 219 509 *~ 1;
#X obj 214 243 t b b;
#X msg 252 473 1;
#X obj 277 200 bng 15 250 50 0 empty empty empty 17 7 0 10 -262144
-1 -1;
#X obj 279 241 t b b;
#X msg 284 469 5;
#X connect 0 0 3 0;
#X connect 1 0 8 0;
#X connect 3 0 7 0;
#X connect 4 0 3 1;
#X connect 5 0 4 0;
#X connect 6 0 3 2;
#X connect 7 0 2 0;
#X connect 7 0 2 1;
#X connect 8 0 0 0;
#X connect 8 1 9 0;
#X connect 9 0 7 1;
#X connect 10 0 11 0;
#X connect 11 0 0 0;
#X connect 11 1 12 0;
#X connect 12 0 7 1;
